<svg xmlns="http://www.w3.org/2000/svg" viewBox="0 0 24 24" id="Interface-Essential-Signout-Logout--Streamline-Pixel" height="24" width="24"><desc>Interface Essential Signout Logout Streamline Icon: https://streamlinehq.com</desc><title>interface-essential-signout-logout</title><g><path d="m18.85875 6.855 0 3.4275 -4.574999999999999 0 0 2.2874999999999996 4.574999999999999 0 0 3.4275 1.1400000000000001 0 0 -1.1400000000000001 1.1475 0 0 -1.1400000000000001 1.1400000000000001 0 0 -1.1475 1.1400000000000001 0 0 -2.2874999999999996 -1.1400000000000001 0 0 -1.1400000000000001 -1.1400000000000001 0 0 -1.1400000000000001 -1.1475 0 0 -1.1475 -1.1400000000000001 0z" fill="#cbda3d" stroke-width="0.75"></path><path d="M15.431249999999999 15.997499999999999h1.1400000000000001v4.574999999999999h-1.1400000000000001Z" fill="#cbda3d" stroke-width="0.75"></path><path d="M15.431249999999999 1.1400000000000001h1.1400000000000001v5.715h-1.1400000000000001Z" fill="#cbda3d" stroke-width="0.75"></path><path d="m10.85625 22.86 0 -1.1475 4.574999999999999 0 0 -1.1400000000000001 -4.574999999999999 0 0 -14.857499999999998 -1.1400000000000001 0 0 17.145 1.1400000000000001 0z" fill="#cbda3d" stroke-width="0.75"></path><path d="M6.28875 22.86h3.4275V24h-3.4275Z" fill="#cbda3d" stroke-width="0.75"></path><path d="M7.428749999999999 12.57h1.1400000000000001v2.2874999999999996h-1.1400000000000001Z" fill="#cbda3d" stroke-width="0.75"></path><path d="M7.428749999999999 4.574999999999999h2.2874999999999996v1.1400000000000001h-2.2874999999999996Z" fill="#cbda3d" stroke-width="0.75"></path><path d="M4.00125 21.7125h2.2874999999999996v1.1475h-2.2874999999999996Z" fill="#cbda3d" stroke-width="0.75"></path><path d="M5.14125 3.4275h2.2874999999999996V4.574999999999999h-2.2874999999999996Z" fill="#cbda3d" stroke-width="0.75"></path><path d="M1.71375 20.572499999999998h2.2874999999999996v1.1400000000000001h-2.2874999999999996Z" fill="#cbda3d" stroke-width="0.75"></path><path d="M2.86125 2.2874999999999996h2.2800000000000002v1.1400000000000001h-2.2800000000000002Z" fill="#cbda3d" stroke-width="0.75"></path><path d="m1.71375 0 0 1.1400000000000001 -1.1400000000000001 0 0 19.4325 1.1400000000000001 0 0 -18.285 1.1475 0 0 -1.1475 12.57 0 0 -1.1400000000000001 -13.7175 0z" fill="#cbda3d" stroke-width="0.75"></path></g></svg>