<svg xmlns="http://www.w3.org/2000/svg" viewBox="0 0 24 24" id="User-Single-Aim--Streamline-Pixel" height="24" width="24"><desc>User Single Aim Streamline Icon: https://streamlinehq.com</desc><title>user-single-aim</title><g><path d="m22.8525 9.1425 -1.1400000000000001 0 0 2.2874999999999996 -1.1400000000000001 0 0 1.1400000000000001 1.1400000000000001 0 0 2.2874999999999996 1.1400000000000001 0 0 -2.2874999999999996 1.1475 0 0 -1.1400000000000001 -1.1475 0 0 -2.2874999999999996z" fill="#000000" stroke-width="0.75"></path><path d="M20.572499999999998 14.857499999999998h1.1400000000000001v2.2874999999999996h-1.1400000000000001Z" fill="#000000" stroke-width="0.75"></path><path d="M20.572499999999998 6.855h1.1400000000000001v2.2874999999999996h-1.1400000000000001Z" fill="#000000" stroke-width="0.75"></path><path d="M19.424999999999997 17.145h1.1475v2.2800000000000002H19.424999999999997Z" fill="#000000" stroke-width="0.75"></path><path d="M19.424999999999997 4.5675h1.1475v2.2874999999999996H19.424999999999997Z" fill="#000000" stroke-width="0.75"></path><path d="m18.285 18.285 -1.1475 0 0 2.2874999999999996 2.2874999999999996 0 0 -1.1475 -1.1400000000000001 0 0 -1.1400000000000001z" fill="#000000" stroke-width="0.75"></path><path d="M17.137500000000003 3.4275h2.2874999999999996v1.1400000000000001h-2.2874999999999996Z" fill="#000000" stroke-width="0.75"></path><path d="M14.857499999999998 20.572499999999998h2.2800000000000002v1.1400000000000001h-2.2800000000000002Z" fill="#000000" stroke-width="0.75"></path><path d="M14.857499999999998 17.145h2.2800000000000002v1.1400000000000001h-2.2800000000000002Z" fill="#000000" stroke-width="0.75"></path><path d="M14.857499999999998 14.857499999999998h1.1400000000000001v1.1400000000000001h-1.1400000000000001Z" fill="#000000" stroke-width="0.75"></path><path d="M14.857499999999998 2.2874999999999996h2.2800000000000002v1.1400000000000001h-2.2800000000000002Z" fill="#000000" stroke-width="0.75"></path><path d="M13.71 10.2825h1.1475v2.2874999999999996h-1.1475Z" fill="#000000" stroke-width="0.75"></path><path d="m12.57 20.572499999999998 -1.1475 0 0 1.1400000000000001 -2.2800000000000002 0 0 1.1475 2.2800000000000002 0 0 1.1400000000000001 1.1475 0 0 -1.1400000000000001 2.2874999999999996 0 0 -1.1475 -2.2874999999999996 0 0 -1.1400000000000001z" fill="#000000" stroke-width="0.75"></path><path d="M9.1425 15.997499999999999h5.715v1.1475h-5.715Z" fill="#000000" stroke-width="0.75"></path><path d="M10.2825 13.71h3.4275v1.1475h-3.4275Z" fill="#000000" stroke-width="0.75"></path><path d="m11.4225 3.4275 1.1475 0 0 -1.1400000000000001 2.2874999999999996 0 0 -1.1475 -2.2874999999999996 0 0 -1.1400000000000001 -1.1475 0 0 1.1400000000000001 -2.2800000000000002 0 0 1.1475 2.2800000000000002 0 0 1.1400000000000001z" fill="#000000" stroke-width="0.75"></path><path d="M9.1425 10.2825h1.1400000000000001v2.2874999999999996h-1.1400000000000001Z" fill="#000000" stroke-width="0.75"></path><path d="M6.855 20.572499999999998h2.2874999999999996v1.1400000000000001H6.855Z" fill="#000000" stroke-width="0.75"></path><path d="M6.855 17.145h2.2874999999999996v1.1400000000000001H6.855Z" fill="#000000" stroke-width="0.75"></path><path d="M7.995 14.857499999999998h1.1475v1.1400000000000001h-1.1475Z" fill="#000000" stroke-width="0.75"></path><path d="M6.855 2.2874999999999996h2.2874999999999996v1.1400000000000001H6.855Z" fill="#000000" stroke-width="0.75"></path><path d="m7.995 9.1425 1.1475 0 0 -1.1400000000000001 5.715 0 0 1.1400000000000001 1.1400000000000001 0 0 5.715 1.1400000000000001 0 0 -8.0025 -1.1400000000000001 0 0 -1.1400000000000001 -1.1400000000000001 0 0 -1.1475 -5.715 0 0 1.1475 -1.1475 0 0 1.1400000000000001 -1.1400000000000001 0 0 8.0025 1.1400000000000001 0 0 -5.715z" fill="#000000" stroke-width="0.75"></path><path d="m5.715 18.285 0 1.1400000000000001 -1.1475 0 0 1.1475 2.2874999999999996 0 0 -2.2874999999999996 -1.1400000000000001 0z" fill="#000000" stroke-width="0.75"></path><path d="M4.5675 3.4275h2.2874999999999996v1.1400000000000001H4.5675Z" fill="#000000" stroke-width="0.75"></path><path d="M3.4275 17.145h1.1400000000000001v2.2800000000000002H3.4275Z" fill="#000000" stroke-width="0.75"></path><path d="M3.4275 4.5675h1.1400000000000001v2.2874999999999996H3.4275Z" fill="#000000" stroke-width="0.75"></path><path d="M2.2800000000000002 14.857499999999998h1.1475v2.2874999999999996H2.2800000000000002Z" fill="#000000" stroke-width="0.75"></path><path d="M2.2800000000000002 6.855h1.1475v2.2874999999999996H2.2800000000000002Z" fill="#000000" stroke-width="0.75"></path><path d="m3.4275 12.57 0 -1.1400000000000001 -1.1475 0 0 -2.2874999999999996 -1.1400000000000001 0 0 2.2874999999999996 -1.1400000000000001 0 0 1.1400000000000001 1.1400000000000001 0 0 2.2874999999999996 1.1400000000000001 0 0 -2.2874999999999996 1.1475 0z" fill="#000000" stroke-width="0.75"></path></g></svg>